<?xml version="1.0" encoding="utf-8"?>
<!-- Generator: Adobe Illustrator 23.0.5, SVG Export Plug-In . SVG Version: 6.00 Build 0)  -->
<svg version="1.1" id="Layer_1" xmlns="http://www.w3.org/2000/svg" xmlns:xlink="http://www.w3.org/1999/xlink" x="0px" y="0px"
	 viewBox="0 0 4000 4000" style="enable-background:new 0 0 4000 4000;" xml:space="preserve">
<style type="text/css">
	.st0{display:none;fill-rule:evenodd;clip-rule:evenodd;fill:#FFFFFF;}
	.st1{fill-rule:evenodd;clip-rule:evenodd;fill:url(#SVGID_1_);}
	.st2{fill-rule:evenodd;clip-rule:evenodd;fill:#020C6A;fill-opacity:0.2392;}
	.st3{fill-rule:evenodd;clip-rule:evenodd;fill:url(#SVGID_2_);}
</style>
<g id="Layer_x5F_1">
	<g id="_2912481271264">
		<rect x="-1390.3" y="-1343.3" class="st0" width="6973.3" height="6686.7"/>
		<g>
			
				<linearGradient id="SVGID_1_" gradientUnits="userSpaceOnUse" x1="586.0444" y1="444.4456" x2="2639.978" y2="3143.0315" gradientTransform="matrix(1 0 0 -1 0 4002)">
				<stop  offset="0" style="stop-color:#FB4FAF"/>
				<stop  offset="1" style="stop-color:#114FEE"/>
			</linearGradient>
			<path class="st1" d="M1437.4,1797.2l-392.9,652.6c-97.2,161.5-39,370,129.5,463.3l0,0c168.5,93.3,385.9,37.4,483.1-124.1
				l529.1-878.8l-73.9-135.5l-530.5-14.7L1437.4,1797.2L1437.4,1797.2z"/>
			<path class="st2" d="M1222.7,2153.8L1222.7,2153.8c390.2-178.3,636.3-88.2,786,51.1l177.4-294.7l-73.9-135.5l-530.5-14.7
				l-1.4,0.3L1222.7,2153.8L1222.7,2153.8z"/>
			
				<linearGradient id="SVGID_2_" gradientUnits="userSpaceOnUse" x1="2217.4294" y1="1087.7988" x2="2181.0457" y2="3371.8865" gradientTransform="matrix(1 0 0 -1 0 4002)">
				<stop  offset="0" style="stop-color:#1A85F8"/>
				<stop  offset="1" style="stop-color:#00FFFF"/>
			</linearGradient>
			<path class="st3" d="M2402.4,1211.1l745.8,1238.6c97.3,161.5,39,370-129.4,463.3l0,0c-168.5,93.2-385.9,37.4-483.1-124.1
				c-125.1-207.9-307.2-576-506.6-713.4c-174.7-120.5-442.3-180.4-806.4,78.4l559.4-929.1c4.8-8.1-0.8,1.3,7.7-13.1
				c30-50.3,73.7-93.8,129.4-124.6l0,0C2087.8,993.7,2305.1,1049.5,2402.4,1211.1z"/>
		</g>
	</g>
</g>
</svg>
